G04 Layer_Physical_Order=1*
G04 Layer_Color=255*
%FSLAX44Y44*%
%MOMM*%
G71*
G01*
G75*
G04:AMPARAMS|DCode=10|XSize=1.3mm|YSize=1.3mm|CornerRadius=0.1625mm|HoleSize=0mm|Usage=FLASHONLY|Rotation=90.000|XOffset=0mm|YOffset=0mm|HoleType=Round|Shape=RoundedRectangle|*
%AMROUNDEDRECTD10*
21,1,1.3000,0.9750,0,0,90.0*
21,1,0.9750,1.3000,0,0,90.0*
1,1,0.3250,0.4875,0.4875*
1,1,0.3250,0.4875,-0.4875*
1,1,0.3250,-0.4875,-0.4875*
1,1,0.3250,-0.4875,0.4875*
%
%ADD10ROUNDEDRECTD10*%
G04:AMPARAMS|DCode=11|XSize=1.8mm|YSize=1.8mm|CornerRadius=0.225mm|HoleSize=0mm|Usage=FLASHONLY|Rotation=90.000|XOffset=0mm|YOffset=0mm|HoleType=Round|Shape=RoundedRectangle|*
%AMROUNDEDRECTD11*
21,1,1.8000,1.3500,0,0,90.0*
21,1,1.3500,1.8000,0,0,90.0*
1,1,0.4500,0.6750,0.6750*
1,1,0.4500,0.6750,-0.6750*
1,1,0.4500,-0.6750,-0.6750*
1,1,0.4500,-0.6750,0.6750*
%
%ADD11ROUNDEDRECTD11*%
G04:AMPARAMS|DCode=12|XSize=1.3mm|YSize=1.3mm|CornerRadius=0.1625mm|HoleSize=0mm|Usage=FLASHONLY|Rotation=0.000|XOffset=0mm|YOffset=0mm|HoleType=Round|Shape=RoundedRectangle|*
%AMROUNDEDRECTD12*
21,1,1.3000,0.9750,0,0,0.0*
21,1,0.9750,1.3000,0,0,0.0*
1,1,0.3250,0.4875,-0.4875*
1,1,0.3250,-0.4875,-0.4875*
1,1,0.3250,-0.4875,0.4875*
1,1,0.3250,0.4875,0.4875*
%
%ADD12ROUNDEDRECTD12*%
G04:AMPARAMS|DCode=13|XSize=1.4mm|YSize=1.3mm|CornerRadius=0.1625mm|HoleSize=0mm|Usage=FLASHONLY|Rotation=0.000|XOffset=0mm|YOffset=0mm|HoleType=Round|Shape=RoundedRectangle|*
%AMROUNDEDRECTD13*
21,1,1.4000,0.9750,0,0,0.0*
21,1,1.0750,1.3000,0,0,0.0*
1,1,0.3250,0.5375,-0.4875*
1,1,0.3250,-0.5375,-0.4875*
1,1,0.3250,-0.5375,0.4875*
1,1,0.3250,0.5375,0.4875*
%
%ADD13ROUNDEDRECTD13*%
G04:AMPARAMS|DCode=14|XSize=1.8mm|YSize=1.8mm|CornerRadius=0.225mm|HoleSize=0mm|Usage=FLASHONLY|Rotation=0.000|XOffset=0mm|YOffset=0mm|HoleType=Round|Shape=RoundedRectangle|*
%AMROUNDEDRECTD14*
21,1,1.8000,1.3500,0,0,0.0*
21,1,1.3500,1.8000,0,0,0.0*
1,1,0.4500,0.6750,-0.6750*
1,1,0.4500,-0.6750,-0.6750*
1,1,0.4500,-0.6750,0.6750*
1,1,0.4500,0.6750,0.6750*
%
%ADD14ROUNDEDRECTD14*%
%ADD15O,2.6000X0.7000*%
%ADD16C,0.5000*%
%ADD17C,0.3000*%
%ADD18C,1.8000*%
%ADD19R,1.8000X1.8000*%
%ADD20O,1.4000X1.8000*%
G36*
X852000Y889000D02*
X851000Y888000D01*
X597000D01*
Y1221000D01*
X852000D01*
Y889000D01*
D02*
G37*
D10*
X648000Y1094000D02*
D03*
X628000D02*
D03*
X628000Y996000D02*
D03*
X652000D02*
D03*
D11*
X628000Y1047000D02*
D03*
X658000D02*
D03*
D12*
X715000Y983000D02*
D03*
Y1003000D02*
D03*
X810000Y1067000D02*
D03*
Y1047000D02*
D03*
X834000Y1146000D02*
D03*
Y1166000D02*
D03*
X715000Y1067000D02*
D03*
Y1047000D02*
D03*
D13*
X795000Y1165000D02*
D03*
Y1147000D02*
D03*
X766000Y1065000D02*
D03*
Y1047000D02*
D03*
D14*
Y1013000D02*
D03*
Y983000D02*
D03*
X650000Y1150000D02*
D03*
Y1180000D02*
D03*
D15*
X704000Y1142050D02*
D03*
Y1129350D02*
D03*
Y1116650D02*
D03*
Y1103950D02*
D03*
X752000Y1142050D02*
D03*
Y1129350D02*
D03*
Y1116650D02*
D03*
Y1103950D02*
D03*
D16*
X845000Y998094D02*
Y1135000D01*
X790000Y943094D02*
X845000Y998094D01*
X834000Y1146000D02*
X845000Y1135000D01*
X674173Y980827D02*
Y1003000D01*
Y980827D02*
X691000Y964000D01*
X718000D01*
X734000Y948000D01*
Y945400D02*
Y948000D01*
X683200Y945400D02*
X708600D01*
X734000Y920000D02*
Y945400D01*
X626500Y1164500D02*
X734000D01*
Y1188000D01*
Y1164500D02*
X794500D01*
X777350Y1129350D02*
X795000Y1147000D01*
X794500Y1164500D02*
X795000Y1165000D01*
X674173Y1092173D02*
X685950Y1103950D01*
X704000D01*
X674173Y1033000D02*
X674173Y1033000D01*
X674173Y1074000D02*
X674173Y1074000D01*
Y1092173D01*
X674174Y1003000D02*
X715000D01*
X674173Y1003000D02*
X674174Y1003000D01*
X752000Y1129350D02*
X777350D01*
X608000Y1146000D02*
X626500Y1164500D01*
X796000Y1146000D02*
X834000D01*
X795000Y1147000D02*
X796000Y1146000D01*
X652000Y976600D02*
X683200Y945400D01*
X652000Y976600D02*
Y996000D01*
X652000Y996000D01*
X652000Y1024000D02*
X674173D01*
Y1003000D02*
Y1024000D01*
Y1033000D01*
X648000Y1094000D02*
X672347D01*
X674173Y1092173D01*
X658000Y1047000D02*
X674173D01*
X674173Y1047000D01*
Y1033000D02*
Y1047000D01*
Y1074000D01*
X774000Y897000D02*
X790000Y913000D01*
Y943094D01*
X667000Y897000D02*
X774000D01*
X667000D02*
Y929200D01*
X683200Y945400D01*
X640000Y976000D02*
Y1012000D01*
X652000Y1024000D01*
X633000Y969000D02*
X640000Y976000D01*
X608000Y983000D02*
Y1146000D01*
Y983000D02*
X622000Y969000D01*
X633000D01*
D17*
X683200Y920000D02*
X708600D01*
X759400D02*
Y945400D01*
X766000Y957000D02*
Y983000D01*
X759400Y950400D02*
X766000Y957000D01*
X759400Y945400D02*
Y950400D01*
X714500Y1188000D02*
X730500Y1204000D01*
X650000Y1150000D02*
X670650Y1129350D01*
X651000Y1181000D02*
X661000D01*
X668000Y1188000D01*
X714500D01*
X637651Y1116650D02*
X704000D01*
X670650Y1129350D02*
X704000D01*
X718650D01*
X765000Y1067000D02*
X766000Y1066000D01*
X715000Y983000D02*
X766000D01*
X796000Y1204000D02*
X834000Y1166000D01*
X730500Y1204000D02*
X796000D01*
X752000Y1116650D02*
X772350D01*
X810000Y1079000D01*
Y1067000D02*
Y1079000D01*
X776001Y1013000D02*
X810000Y1047000D01*
X766000Y1013000D02*
X776001D01*
X715000Y1047000D02*
X766000D01*
X715000Y1047000D02*
X715000Y1047000D01*
X628000Y996000D02*
Y1047000D01*
X628000Y1047000D02*
X628000Y1047000D01*
X628000Y1047000D02*
Y1093999D01*
X628000Y1094000D01*
Y1107000D01*
X637651Y1116650D01*
X766000Y1047000D02*
X779000D01*
X799000Y1067000D01*
X810000D01*
X766000Y1048000D02*
X766912D01*
X765001Y1047000D02*
X766000Y1048000D01*
X715000Y1067000D02*
X728750Y1080750D01*
Y1119250D01*
X718650Y1129350D02*
X728750Y1119250D01*
X729500Y1081500D02*
X746000Y1065000D01*
X766000D01*
D18*
X683200Y945400D02*
D03*
Y920000D02*
D03*
X708600Y945400D02*
D03*
Y920000D02*
D03*
X734000Y945400D02*
D03*
Y920000D02*
D03*
X759400Y945400D02*
D03*
D19*
Y920000D02*
D03*
D20*
X734000Y1188000D02*
D03*
X714500D02*
D03*
M02*
